PathFileType	4	(X/Y/Z)	C:/Users/beibeiliu/ov580/test_trc/User1\sequence.27_training_dense_right.trc
DataRate	CameraRate	NumFrames	NumMarkers	Units	OrigDataRate	OrigDataStartFrame	OrigNumFrames
120	120	17	19	mm	120	57	112
Frame#	Time	ThumbCMC			ThumbMCP			ThumbIP			ThumbTip			IndexMCP			IndexPIP			IndexTip			MiddleMCP			MiddlePIP			MiddleTip			RingMCP			RingPIP			RingTip			PinkyMCP			PinkyPIP			PinkyTip			BackHand1			BackHand2			BackHand3	
		X0	Y0	Z0	X1	Y1	Z1	X2	Y2	Z2	X3	Y3	Z3	X4	Y4	Z4	X5	Y5	Z5	X6	Y6	Z6	X7	Y7	Z7	X8	Y8	Z8	X9	Y9	Z9	X10	Y10	Z10	X11	Y11	Z11	X12	Y12	Z12	X13	Y13	Z13	X14	Y14	Z14	X15	Y15	Z15	X16	Y16	Z16	X17	Y17	Z17	X18	Y18	Z18	
56	0.466667	114.488	9.65159	107.867	98.1386	-8.875	86.1007	78.2266	-15.9407	63.2666	69.2519	-26.7246	41.9371	111.147	31.7789	25.7618	101.075	25.7706	-6.37429	98.1298	11.3891	-29.379	136.213	30.3354	7.30462	131.712	18.9915	-21.0623	122.395	-4.04237	-43.9699	164.372	22.4155	12.956	154.818	14.5913	-18.4691	151.524	-5.43496	-39.6524	187.369	7.95478	25.7623	192.668	3.3909	5.64092	194.769	4.93439	-17.0504	172.26	29.4096	65.7537	180.091	33.2333	103.621	142.247	38.7444	91.0559	
57	0.475	115.753	11.3456	105.006	98.3759	-8.29425	84.5538	78.3798	-15.296	61.7762	71.7237	-26.7199	46.0395	110.551	32.7695	24.0211	104.387	27.0519	-5.92932	99.7036	11.3108	-30.5689	138.09	30.0225	7.34936	128.53	20.9286	-18.6552	121.556	-1.6783	-41.8304	159.636	23.2082	10.8286	159.708	14.3095	-18.5168	149.722	-2.74672	-35.5078	190.257	6.88496	28.8252	192.587	4.83838	8.713	193.79	6.33073	-19.8031	174.297	31.0598	65.8144	182.338	31.7427	103.608	146.11	38.7983	88.3673	
58	0.483333	113.061	10.288	109.236	97.9558	-7.16799	85.038	81.298	-14.5076	61.8417	69.1389	-25.966	44.2683	111.3	32.4913	25.9756	103.066	27.9681	-2.4238	97.0357	12.3995	-29.162	136.893	31.3667	9.69421	130.12	19.8217	-19.9266	126.796	-2.12558	-43.0288	162.689	24.1543	11.6698	157.264	16.016	-16.5263	151.656	-4.32348	-39.4997	185.448	10.0156	23.5635	188.848	5.8792	5.76934	196.809	7.64144	-18.9539	173.718	32.3415	69.6818	178.676	32.1687	102.942	143.953	38.8033	90.7488	
59	0.491667	113.686	11.533	104.235	95.9501	-7.42681	85.7188	82.0718	-14.8851	61.0881	67.962	-25.7651	41.3541	107.12	32.6342	22.3101	105.579	28.1162	-4.52937	95.9727	12.7776	-30.506	136.652	30.575	8.87319	130.021	20.4649	-19.7922	124.192	-4.29744	-45.5444	160.162	24.8066	10.4147	159.111	15.1789	-17.2173	152.016	-2.98354	-37.0325	187.891	8.25439	27.9872	193.303	5.2144	3.90696	193.378	8.29194	-21.0085	172.573	32.6316	67.4976	182.446	33.9982	102.803	144.6	39.61	90.9993	
60	0.5	112.725	10.6334	104.991	92.2627	-8.99689	86.461	80.5852	-16.6117	65.5752	68.5264	-26.8062	44.0961	108.693	33.1986	23.2626	101.978	28.0453	-4.73501	99.0976	13.2569	-28.2439	134.06	30.6853	7.67098	126.838	20.6381	-17.7722	125.26	-3.17457	-43.1063	163.009	23.2034	11.4014	156.226	15.7903	-15.9108	150.82	-5.65255	-39.5362	186.645	7.93095	26.5903	189.138	6.31502	5.67858	196.799	5.06714	-16.0292	170.041	31.6838	66.9135	179.519	34.0035	99.505	144.916	37.5076	92.9612	
61	0.508333	112.296	8.95132	108.908	93.9553	-8.21779	83.559	82.547	-17.4547	64.1269	69.7998	-27.4266	43.8548	111.232	31.4048	25.4447	104.735	25.971	-2.14976	96.2917	11.9887	-28.0349	135.72	29.5881	12.2444	127.268	20.0624	-17.258	118.654	-4.02497	-43.7615	163.593	21.8415	12.728	152.303	13.862	-18.8846	149.716	-6.25719	-39.6163	186.302	7.32978	25.1563	192.455	3.30613	8.86969	195.213	6.40708	-19.4269	170.483	30.7861	67.041	183.055	31.713	100.188	142.185	38.497	92.6818	
62	0.516667	117.141	10.2736	106.444	97.0481	-7.92871	82.677	77.9769	-17.4515	65.7825	68.1422	-28.6047	45.5345	111.344	31.7818	21.5583	103.907	25.9787	-6.38753	99.8926	10.7441	-29.283	138.332	29.9057	11.5345	125.674	19.4848	-21.4177	118.884	-3.14534	-42.5104	161.61	21.9539	8.31531	154.336	14.4242	-17.2668	150.413	-5.53738	-38.8352	188.967	6.36892	26.1492	191.929	3.8764	8.75175	197.517	6.99506	-15.1222	171.278	28.8574	69.9356	182.826	33.1741	98.3406	142.929	38.4232	93.7427	
63	0.525	114.577	10.625	104.378	94.3631	-8.59736	87.4982	78.3223	-17.3007	64.63	70.5611	-27.8317	44.9841	110.797	32.6245	21.2305	103.358	26.9259	-5.0453	96.0427	10.6871	-31.2508	134.287	30.683	12.2263	128.151	21.3148	-18.845	121.919	-3.53312	-43.3749	158.447	23.7594	12.7859	155.32	13.9381	-19.0099	146.835	-4.28156	-40.8732	186.348	9.1722	25.9967	189.71	5.98955	7.58924	194.125	8.46972	-18.3242	173.774	32.2734	65.2616	181.969	33.2393	100.822	142.222	38.7587	94.108	
64	0.533333	116.067	10.4538	108.656	97.3371	-7.42513	85.0469	80.437	-16.1823	63.2594	71.921	-27.1474	44.6675	112.619	33.0772	21.8227	106.148	29.1973	-3.28021	98.6562	11.7367	-31.6971	139.811	30.8105	8.35397	129.83	21.0266	-18.1816	123.063	-1.87792	-42.9265	163.241	23.5097	8.90603	160.321	14.7002	-18.3094	149.239	-4.38512	-39.5699	188.673	9.13587	28.1478	191.83	6.34519	5.90621	191.992	4.91927	-18.6929	175.026	32.5806	67.5735	183.384	31.6894	98.5713	142.727	37.4773	91.8395	
65	0.541667	119.491	12.6094	105.61	96.8535	-5.64988	85.7806	85.0092	-12.9234	62.2344	68.674	-24.0405	41.8433	115.148	36.7261	18.837	108.698	31.1311	-6.5344	102.994	17.3559	-32.229	139.062	34.025	8.07233	130.536	24.6217	-20.0279	125.829	-2.54874	-47.078	160.794	26.9841	7.98876	160.821	16.6035	-17.6353	150.084	-6.23863	-38.6507	191.136	11.8215	25.2747	189.174	6.86769	1.1082	190.305	-1.87889	-21.0319	173.195	33.9834	67.2876	182	34.8292	102.073	144.946	42.7647	88.6602	
66	0.55	121.117	19.3474	107.707	98.0018	3.79041	83.8805	83.1518	-1.85056	59.905	72.2203	-10.8334	37.267	119.702	46.8826	23.4969	111.744	44.9094	-4.80128	105.029	35.6178	-32.9257	145.454	40.8272	10.3556	138.557	31.2277	-19.1092	132.137	8.29659	-44.7247	164.543	28.4635	7.41555	161.228	14.4361	-16.8096	148.019	-8.68325	-29.9761	188.717	14.0796	21.5055	183.714	3.30447	-1.05773	173.896	-13.8785	-18.9073	183.367	36.3969	70.4483	189.428	37.7436	99.5184	149.639	44.659	93.3431	
67	0.558333	126.347	31.2918	104.207	105.01	19.9136	80.8108	91.5006	15.4878	59.5872	79.6649	10.33	36.8229	128.447	64.5607	30.2293	124.576	70.0357	1.00285	117.273	69.2841	-26.0503	154.359	55.3621	12.1294	144.036	47.8494	-21.0856	136.253	30.503	-43.1847	169.203	35.2858	12.5822	156.199	17.9116	-13.5002	139.087	-11.9679	-15.6903	189.379	17.417	21.6378	178.959	1.8943	1.71657	152.215	-18.4241	-1.75435	187.32	41.6079	69.1373	191.387	40.92	105.213	158.284	54.7811	93.6503	
68	0.566667	124.673	41.3668	104.496	107.465	32.2991	77.892	96.0927	35.6219	51.0722	85.1285	31.578	29.6956	133.579	87.1149	34.798	129.529	98.0227	9.29444	126.575	103.371	-13.7842	157.86	75.2481	13.9331	149.625	73.3317	-12.0493	137.873	60.2173	-41.478	166.523	45.5226	9.9175	151.541	23.1288	-6.25765	132.706	-4.62729	3.67339	185.289	25.5982	20.7896	164.457	8.93536	10.5655	142.108	-7.92301	21.7467	187.179	52.9284	74.8493	194.837	44.8471	104.435	162.721	62.6968	98.6158	
69	0.575	127.896	44.9937	103.075	105.007	40.0297	75.8195	94.8256	45.2384	50.1978	93.1864	44.4951	24.2856	134.429	90.3266	35.6644	128.317	104.294	12.6247	127.975	112.051	-11.6096	153.865	76.8656	16.7081	142.019	72.9703	-16.7129	122.471	59.2059	-41.0608	158.306	45.061	13.9963	139.974	15.8261	5.07177	126.804	-2.24054	25.2428	175.676	22.1404	21.7019	152.42	4.85648	22.2862	132.586	-2.77124	46.7711	188.569	52.3368	71.4198	196.025	42.1728	105.566	163.027	65.2089	98.4222	
70	0.583333	132.91	53.0171	104.464	106.57	60.2518	78.1201	106.395	60.6883	47.9657	98.9365	58.5443	25.9716	140.023	84.2642	26.3127	138.151	86.5661	2.71732	141.814	89.3088	-23.4121	141.45	58.2339	8.07368	120.962	52.9822	-13.0895	98.103	42.053	-28.5032	140.958	24.8662	15.4706	111.901	7.40864	23.6351	106.977	0.936098	54.4324	151.919	3.3184	26.9899	125.243	-3.85196	39.5375	119.477	7.6054	68.1293	182.433	36.294	60.5173	193.152	27.0128	98.6681	171.833	58.7416	91.5225	
71	0.591667	143.418	66.5607	102.638	125.269	76.1525	73.578	118.2	77.6059	44.675	108.151	69.3806	19.363	152.171	70.3057	12.3327	146.894	73.4416	-10.9059	148.506	71.0365	-35.0571	135.43	49.7581	8.47045	109.322	53.4503	-5.11493	76.0119	48.0288	-19.9742	116.913	22.4186	21.8396	91.428	24.2312	40.0868	94.1525	25.2908	73.5074	121.885	-0.0680795	35.6017	102.424	14.8617	55.0737	109.704	22.6222	81.8996	172.416	15.5297	57.217	181.954	9.64455	93.3008	177.706	47.8237	79.3502	
72	0.6	161.698	65.7207	91.2239	147.148	84.7934	64.304	138.539	80.1552	33.6847	124.39	65.5873	16.7205	165.354	54.3305	9.3061	158.059	50.2148	-16.5832	156.758	48.4096	-38.4267	136.041	37.5623	6.85717	113.198	54	-8.74262	85.6354	63.8466	-18.9319	115.394	29.6129	24.2871	92.5796	44.8132	40.2394	97.1452	48.312	74.1167	107.721	12.3582	38.6227	95.3219	28.3337	56.168	117.616	39.4881	83.3529	159.586	2.96641	58.0724	168.902	-1.34696	94.3548	182.046	34.8951	76.6562	
